<?xml version="1.0" encoding="UTF-8"?>
<svg xmlns="http://www.w3.org/2000/svg" viewBox="0 0 198.1 198.1">
  <defs>
    <style>
      .cls-1 {
        fill: #357a99;
      }

      .cls-2 {
        stroke-width: 11px;
      }

      .cls-2, .cls-3, .cls-4 {
        fill: none;
        stroke: #357a99;
        stroke-miterlimit: 10;
      }

      .cls-3 {
        stroke-width: 6px;
      }

      .cls-4 {
        stroke-width: 3px;
      }
    </style>
  </defs>
  <g id="Layer_2" data-name="Layer 2">
    <rect class="cls-1" x="94.6" y="21.54" width="8.91" height="162.1" rx="4.45" ry="4.45"/>
    <path class="cls-1" d="M85.58,94.6H22.51c-2.46,0-4.45,1.99-4.45,4.45s1.99,4.45,4.45,4.45h63.07v-8.91h0Z"/>
    <path class="cls-1" d="M175.7,94.6h-63.07v8.91h63.07c2.46,0,4.45-1.99,4.45-4.45s-1.99-4.45-4.45-4.45h0Z"/>
    <path class="cls-1" d="M145.38,54.06l-22.51,22.51,3.18,3.18,22.51-22.51c.88-.88.88-2.3,0-3.18s-2.3-.88-3.18,0Z"/>
    <path class="cls-1" d="M135.66,42.5c-.88-.88-2.3-.88-3.18,0l-19.96,19.96v5.11l.63.63,22.51-22.51c.88-.88.88-2.3,0-3.18h0Z"/>
    <path class="cls-1" d="M162.78,112.65h-49.63s-.06.03-.06.06h0c0,3.86,3.13,7,7,7h42.94c2.05,0,3.7-1.75,3.51-3.84-.16-1.87-1.89-3.21-3.76-3.21h0Z"/>
    <path class="cls-1" d="M56.4,29.56c-1.7,0-3.08.77-3.08,1.72v4.14c0,.23,1.38.41,3.08.41s3.08-.19,3.08-.41v-4.14c0-.95-1.38-1.72-3.08-1.72h0Z"/>
    <path class="cls-1" d="M78.37,79.05l-10.16-13.12c-.32-.41-.58-.87-.78-1.35l-5.4-13.2c.16-5.14-10.63-5.54-10.7,0l-5.4,13.2c-.2.48-.46.94-.78,1.35l-10.16,13.12c-2.94,3.8-.23,9.33,4.58,9.32h34.24c4.81,0,7.52-5.52,4.58-9.32h-.02ZM51.32,57.07l1.27-3.27c.29-.75,1.02-1.25,1.83-1.25h4.13c.84,0,1.59.53,1.86,1.33l1.12,3.27c.44,1.27-.51,2.6-1.86,2.6h-6.51c-1.38,0-2.33-1.39-1.83-2.68h-.01ZM54.07,71.49c-2.1,0-3.8-1.7-3.8-3.8s1.7-3.8,3.8-3.8,3.8,1.7,3.8,3.8-1.7,3.8-3.8,3.8ZM62.41,83.72c-3.58,0-6.47-2.9-6.47-6.47s2.9-6.47,6.47-6.47,6.47,2.9,6.47,6.47-2.9,6.47-6.47,6.47Z"/>
    <path class="cls-1" d="M66.32,35.63l-3.42-.9c-.47-.12-.95.14-.95.51v2.68c0,.24-.21.46-.53.52-.9.19-2.83.57-4.63.84-.04,0-.08.02-.12.03-.04-.01-.07-.03-.12-.03-1.8-.27-3.73-.66-4.63-.84-.31-.06-.53-.28-.53-.52v-2.68c0-.37-.49-.63-.95-.51l-3.42.9c-.29.08-.48.28-.48.51v4.33c0,.21.16.4.41.49l4.03,1.42c.25.09.41.28.41.49v1.71c0,.63.81,1.08,1.61.89,1.95-.44,3-.64,3.55-.72.04,0,.07-.02.11-.03.04.01.07.03.11.03.55.08,1.61.27,3.55.72.8.18,1.61-.27,1.61-.89v-1.71c0-.21.16-.4.41-.49l4.03-1.42c.25-.09.41-.28.41-.49v-4.33c0-.23-.19-.43-.48-.51h.02Z"/>
    <circle class="cls-4" cx="152.43" cy="49.08" r="6.82"/>
    <circle class="cls-4" cx="165.61" cy="63.06" r="6.82"/>
    <circle class="cls-3" cx="57.86" cy="137.02" r="18.65"/>
    <circle class="cls-4" cx="137.86" cy="37.33" r="6.82" transform="translate(78.93 167.42) rotate(-80.78)"/>
    <path class="cls-1" d="M113.99,63c-.56,0-1.07.22-1.47.58v24.47h3.72v-22.72c0-1.29-1.01-2.33-2.25-2.33Z"/>
    <path class="cls-1" d="M126.82,88.38v-10.2c0-1.33-1.01-2.4-2.25-2.4s-2.25,1.07-2.25,2.4v10.2h4.5Z"/>
    <path class="cls-1" d="M144.05,88.38l17.96-17.96c.88-.88.88-2.3,0-3.18s-2.3-.88-3.18,0l-21.14,21.14h6.36Z"/>
    <path class="cls-1" d="M171.42,88.38v-3.61c0-1.24-1.01-2.25-2.25-2.25s-2.25,1.01-2.25,2.25v3.61h4.5Z"/>
    <rect class="cls-1" x="50.1" y="109.21" width="15.69" height="13.05" rx="1.17" ry="1.17"/>
    <rect class="cls-1" x="66.41" y="114.19" width="12.43" height="15.69" rx="1.17" ry="1.17" transform="translate(-65.02 87.1) rotate(-45)"/>
    <rect class="cls-1" x="64.79" y="145.57" width="15.69" height="12.43" rx="1.17" ry="1.17" transform="translate(-86.05 95.82) rotate(-45)"/>
    <rect class="cls-1" x="37.1" y="143.94" width="12.43" height="15.69" rx="1.17" ry="1.17" transform="translate(-94.64 75.08) rotate(-45)"/>
    <rect class="cls-1" x="35.38" y="115.91" width="15.69" height="12.43" rx="1.17" ry="1.17" transform="translate(-73.7 66.33) rotate(-45)"/>
    <rect class="cls-1" x="50.1" y="151.79" width="15.69" height="13.05" rx="1.17" ry="1.17"/>
    <rect class="cls-1" x="72.43" y="129.08" width="13.05" height="15.69" rx="1.17" ry="1.17"/>
    <rect class="cls-1" x="30.27" y="129.09" width="13.05" height="15.69" rx="1.17" ry="1.17"/>
    <path class="cls-1" d="M129.08,124.64c.25,5.34-.89,14.5-8.92,24.91-4.55,5.89-2.54,9.85,1.74,11.05,4.34,1.22,9.32.18,11.09-5.95,1.47-5.07,1.11-22.49.83-30.02h-4.74Z"/>
    <path class="cls-1" d="M156.25,150.04c-2.92,3.45-6.07-15.8-7.41-25.32h-4.69c.23,7.77.95,24.54,2.35,29.59,1.74,6.25,5.55,6.32,9.02,6.68,13.98,1.45,10.31-22.25.73-10.95Z"/>
    <polygon class="cls-1" points="112.49 44.15 134.06 22.58 129.71 20.57 112.49 37.79 112.49 44.15"/>
    <polygon class="cls-1" points="180.44 70.34 167.47 83.32 170.65 86.5 182.26 74.89 180.44 70.34"/>
  </g>
  <g id="Layer_3" data-name="Layer 3">
    <circle class="cls-2" cx="99.05" cy="99.05" r="93.55"/>
  </g>
</svg>
